<svg xmlns="http://www.w3.org/2000/svg" xmlns:lucid="lucid" width="1777.01" height="722.22"><g lucid:page-tab-id="0_0"><path d="M1138.13 527.78h55.5v55.55h-55.5z" stroke="#000" stroke-opacity="0" stroke-width="55.56" fill="red"/><path d="M1138.13 138.9h55.5v388.88h-55.5zm111 0h55.5v444.43h-55.5zm111 0h56v444.43h-56zm111.5 0h55.5v444.43h-55.5zm111 180.43h55.5v83.56h-55.5z" stroke="#000" stroke-opacity="0" stroke-width="55.56" fill="#fc0"/><path d="M78.13 118.67l249 484.88 251-484.88h-500zm210.5 192.5h-40V271.4h40v39.77zm0-59.64h-40v-39.76h40v39.76zm59.5 119.28h-40v-39.75h40v39.76zm0-59.63h-40V271.4h40v39.77zm0-59.64h-40v-39.76h40v39.76zm59 59.64h-39.5V271.4h39.5v39.77zm-39.5-59.64v-39.76h39.5v39.76h-39.5z" stroke="#000" stroke-opacity="0" stroke-width="31.25"/><path d="M486.67 305h623.46" stroke="#3a414a" stroke-width="10" fill="none"/><path d="M486.8 309.97h-7.7l5.15-9.95h2.55z" stroke="#3a414a" stroke-width=".05" fill="#3a414a"/><path d="M1128.12 305l-13 7.5v-15z" stroke="#3a414a" stroke-width="10" fill="#3a414a"/><path d="M486.38 349.98h646.75" stroke="#3a414a" stroke-width="10" fill="none"/><path d="M468.4 349.98l12.98-7.5v15z" stroke="#3a414a" stroke-width="10" fill="#3a414a"/><path d="M1138.13 354.96H1133V345h5.13z" stroke="#3a414a" stroke-width=".05" fill="#3a414a"/></g></svg>